HIERARCHY
ROOT Hips
{
	OFFSET 0.000000 89.005402 0.000000
	CHANNELS 6 Xposition Yposition Zposition Xrotation Yrotation Zrotation
	JOINT Spine
	{
		OFFSET 0.116900 10.681000 0.373400
		CHANNELS 3 Xrotation Yrotation Zrotation
		JOINT Spine1
		{
			OFFSET 0.000000 13.840401 0.053500
			CHANNELS 3 Xrotation Yrotation Zrotation
			JOINT Spine2
			{
				OFFSET 0.000000 14.712700 -0.366200
				CHANNELS 3 Xrotation Yrotation Zrotation
				JOINT Neck
				{
					OFFSET 0.000000 35.415497 -3.314200
					CHANNELS 3 Xrotation Yrotation Zrotation
					JOINT Head
					{
						OFFSET 0.000000 16.899200 1.218300
						CHANNELS 3 Xrotation Yrotation Zrotation
						JOINT HeadTop_End
						{
							OFFSET 0.000000 22.206207 2.192500
							CHANNELS 3 Xrotation Yrotation Zrotation
							End Site
							{
								OFFSET 0.000000 22.314178 0.000000
							}
						}
					}
				}
				JOINT LeftShoulder
				{
					OFFSET 12.896400 26.716293 -4.548400
					CHANNELS 3 Xrotation Yrotation Zrotation
					JOINT LeftArm
					{
						OFFSET 19.027000 -4.857010 -1.718400
						CHANNELS 3 Xrotation Yrotation Zrotation
						JOINT LeftForeArm
						{
							OFFSET 24.179897 0.000000 0.000000
							CHANNELS 3 Xrotation Yrotation Zrotation
							JOINT LeftHand
							{
								OFFSET 27.156403 0.000000 0.000000
								CHANNELS 3 Xrotation Yrotation Zrotation
								JOINT LeftHandIndex1
								{
									OFFSET 16.441200 0.000000 0.000000
									CHANNELS 3 Xrotation Yrotation Zrotation
									JOINT LeftHandIndex2
									{
										OFFSET 4.821899 0.000000 0.000000
										CHANNELS 3 Xrotation Yrotation Zrotation
										JOINT LeftHandIndex3
										{
											OFFSET 6.386497 0.000000 0.000000
											CHANNELS 3 Xrotation Yrotation Zrotation
											JOINT LeftHandIndex4
											{
												OFFSET 5.188988 0.000000 0.000000
												CHANNELS 3 Xrotation Yrotation Zrotation
												End Site
												{
													OFFSET -0.178703 5.185913 0.000177
												}
											}
										}
									}
								}
								JOINT LeftHandThumb1
								{
									OFFSET 6.534897 -5.032593 5.900300
									CHANNELS 3 Xrotation Yrotation Zrotation
									JOINT LeftHandThumb2
									{
										OFFSET 3.818176 -2.204422 2.204423
										CHANNELS 3 Xrotation Yrotation Zrotation
										JOINT LeftHandThumb3
										{
											OFFSET 3.252098 -1.877594 1.877601
											CHANNELS 3 Xrotation Yrotation Zrotation
											JOINT LeftHandThumb4
											{
												OFFSET 5.251778 -3.032120 3.032117
												CHANNELS 3 Xrotation Yrotation Zrotation
												End Site
												{
													OFFSET 0.000023 6.780014 0.000000
												}
											}
										}
									}
								}
							}
						}
					}
				}
				JOINT RightShoulder
				{
					OFFSET -12.896300 26.716293 -4.548400
					CHANNELS 3 Xrotation Yrotation Zrotation
					JOINT RightArm
					{
						OFFSET -19.027000 -4.857010 -1.718400
						CHANNELS 3 Xrotation Yrotation Zrotation
						JOINT RightForeArm
						{
							OFFSET -24.179897 0.000000 0.000000
							CHANNELS 3 Xrotation Yrotation Zrotation
							JOINT RightHand
							{
								OFFSET -27.156403 0.000000 0.000000
								CHANNELS 3 Xrotation Yrotation Zrotation
								JOINT RightHandThumb1
								{
									OFFSET -6.591202 -4.852203 5.988100
									CHANNELS 3 Xrotation Yrotation Zrotation
									JOINT RightHandThumb2
									{
										OFFSET -3.818176 -2.204422 2.204423
										CHANNELS 3 Xrotation Yrotation Zrotation
										JOINT RightHandThumb3
										{
											OFFSET -3.252098 -1.877594 1.877601
											CHANNELS 3 Xrotation Yrotation Zrotation
											JOINT RightHandThumb4
											{
												OFFSET -5.251778 -3.032120 3.032117
												CHANNELS 3 Xrotation Yrotation Zrotation
												End Site
												{
													OFFSET -0.000023 6.780014 0.000000
												}
											}
										}
									}
								}
								JOINT RightHandIndex1
								{
									OFFSET -16.029404 0.000000 0.000000
									CHANNELS 3 Xrotation Yrotation Zrotation
									JOINT RightHandIndex2
									{
										OFFSET -5.213303 0.000000 0.000000
										CHANNELS 3 Xrotation Yrotation Zrotation
										JOINT RightHandIndex3
										{
											OFFSET -6.386528 0.000000 0.000000
											CHANNELS 3 Xrotation Yrotation Zrotation
											JOINT RightHandIndex4
											{
												OFFSET -5.189026 0.000000 0.000000
												CHANNELS 3 Xrotation Yrotation Zrotation
												End Site
												{
													OFFSET 0.236702 5.183624 0.001972
												}
											}
										}
									}
								}
							}
						}
					}
				}
			}
		}
	}
	JOINT LeftUpLeg
	{
		OFFSET 14.073000 -7.904099 -1.463000
		CHANNELS 3 Xrotation Yrotation Zrotation
		JOINT LeftLeg
		{
			OFFSET -0.109806 -34.073280 4.093200
			CHANNELS 3 Xrotation Yrotation Zrotation
			JOINT LeftFoot
			{
				OFFSET 0.109806 -29.899420 -6.319000
				CHANNELS 3 Xrotation Yrotation Zrotation
				JOINT LeftToeBase
				{
					OFFSET 1.551100 -14.988700 20.535801
					CHANNELS 3 Xrotation Yrotation Zrotation
					JOINT LeftToe_End
					{
						OFFSET 0.221200 0.570800 13.248301
						CHANNELS 3 Xrotation Yrotation Zrotation
						End Site
						{
							OFFSET 0.000000 13.262435 0.000000
						}
					}
				}
			}
		}
	}
	JOINT RightUpLeg
	{
		OFFSET -13.839300 -7.904099 -1.463000
		CHANNELS 3 Xrotation Yrotation Zrotation
		JOINT RightLeg
		{
			OFFSET 0.109694 -34.073219 4.093300
			CHANNELS 3 Xrotation Yrotation Zrotation
			JOINT RightFoot
			{
				OFFSET -0.109694 -29.899384 -6.319200
				CHANNELS 3 Xrotation Yrotation Zrotation
				JOINT RightToeBase
				{
					OFFSET -1.551100 -14.988700 20.535801
					CHANNELS 3 Xrotation Yrotation Zrotation
					JOINT RightToe_End
					{
						OFFSET -0.221200 0.570900 13.248299
						CHANNELS 3 Xrotation Yrotation Zrotation
						End Site
						{
							OFFSET 0.000000 13.262440 0.000000
						}
					}
				}
			}
		}
	}
}
MOTION
Frames: 7
Frame Time: 0.033333
-104.788033 195.936142 148.418640 -14.302762 -85.337203 6.825713 9.373397 -5.325592 -2.434393 18.665659 -5.334133 -4.384657 18.665664 -5.334148 -4.384644 8.191456 2.779022 -7.908580 -5.268227 -0.749329 6.485830 0.000001 -0.000000 0.000000 -1.440428 -14.945700 -13.810327 -24.786007 9.214491 8.788725 -179.812448 -151.082459 -185.383437 4.506286 -9.686548 29.560280 0.292332 -1.438292 -7.230152 -1.317381 -0.466096 -29.859275 -0.000007 0.000001 0.000005 -0.000003 0.000001 -0.000002 6.070703 -7.283374 2.853591 -3.240911 1.543160 0.464119 -0.000002 -0.000002 -0.000014 0.000002 0.000002 0.000001 -3.491130 -5.267225 -0.660606 -28.098024 -7.199251 -6.363769 -174.366779 118.498140 174.102533 6.176450 5.729517 -32.754319 17.592008 -13.445482 8.712030 0.482010 -14.057039 -0.868034 -0.000002 0.000002 -0.000005 -0.000003 -0.000002 -0.000001 -1.243027 2.630169 13.606769 -0.797869 -0.343826 27.034816 -0.000008 0.000016 -0.000013 0.000001 0.000000 -0.000000 2.540171 7.729106 38.283948 97.353063 1.587465 -3.306326 -16.377948 -3.249973 13.740351 -4.672806 -0.342564 -1.177133 -0.000000 0.000001 -0.000000 -111.427549 5.381603 -28.094171 134.815435 -3.751423 -0.613567 46.841185 -0.300187 -1.945405 1.335091 -0.000772 0.000001 -0.000000 0.000000 0.000001 
-116.519440 192.508118 149.305756 73.515430 -95.626897 93.034615 11.125447 -4.313405 -2.935823 22.188780 -3.759211 -5.234156 22.188797 -3.759213 -5.234152 5.985763 3.070563 -7.487836 -3.898707 0.780414 5.720068 0.000002 0.000000 0.000000 -1.502465 -10.165161 -10.894783 -27.750840 5.821277 7.793436 -185.618887 -154.863188 -186.643033 0.832040 -10.321054 31.330129 0.064364 -2.687751 -5.564082 -0.926875 -0.158257 -26.086465 -0.000010 -0.000006 0.000005 -0.000001 0.000001 0.000001 6.665947 -4.477364 0.877669 -2.602911 1.118913 0.996895 -0.000003 -0.000004 -0.000013 -0.000001 -0.000002 0.000000 -4.772026 -8.361078 -3.321809 -33.386152 -2.251365 -6.935320 -180.267038 131.720376 178.218145 3.141748 2.570243 -36.841658 11.989148 -10.045800 6.028949 0.897122 -16.796472 -2.768276 -0.000000 0.000004 -0.000007 -0.000000 0.000000 0.000002 -1.561745 2.659667 13.787327 -0.629641 -0.459592 25.302822 -0.000009 0.000015 -0.000011 0.000002 0.000003 -0.000001 0.674271 5.501142 37.808666 113.615887 -13.128202 -6.590583 -31.622120 -3.317061 9.286110 -3.964259 -0.266638 -0.916221 -0.000000 0.000001 -0.000001 -106.734410 3.408766 -25.553461 133.644413 -1.774018 -0.362485 45.886215 1.290777 2.221225 1.726589 -0.001274 0.000018 -0.000000 0.000001 0.000003 
-129.236603 187.795303 150.127090 49.718965 -101.651991 67.596422 12.466353 -2.520515 -3.741641 24.893483 -2.349731 -6.454019 24.893473 -2.349705 -6.454039 3.763170 3.032906 -6.665687 -1.628645 1.968147 4.585847 -0.000001 0.000000 -0.000000 -1.709099 -4.984050 -8.020596 -29.646221 3.569763 6.958249 -190.101049 -156.994548 -188.164157 -2.700070 -11.756257 33.332969 -0.218317 -4.000324 -4.627105 -0.542495 0.181482 -22.336742 -0.000009 -0.000002 0.000006 -0.000001 0.000001 -0.000000 7.486757 -1.324256 -1.038351 -1.867286 0.720201 1.153649 -0.000000 -0.000004 -0.000014 0.000000 0.000002 -0.000000 -5.814791 -11.733220 -4.637677 -34.699431 -1.409242 -4.687974 -183.677037 142.431916 180.054974 1.508810 0.869918 -38.258803 4.523049 -8.443969 3.182261 3.006915 -18.198262 -3.018793 -0.000000 0.000003 -0.000006 -0.000000 0.000000 -0.000001 -1.449821 1.447957 11.868379 -0.414732 -0.622097 23.066201 -0.000009 0.000015 -0.000013 0.000000 -0.000001 -0.000000 -13.399648 3.652161 34.147213 129.129521 -19.460331 -5.721629 -41.755231 -2.531352 4.683548 -3.146972 -0.179053 -0.615247 -0.000000 -0.000003 -0.000000 -99.229378 -0.212133 -23.536760 132.949455 2.162608 -1.378975 42.056934 3.537407 10.340440 2.114821 -0.001913 0.000062 -0.000002 -0.000002 0.000001 
-142.428299 182.277298 150.530411 48.190529 -107.788513 64.182960 13.692150 -1.178491 -4.571461 27.361205 -1.724702 -7.031722 27.361215 -1.724722 -7.031713 2.535008 3.374871 -6.167645 0.646440 4.057102 3.131253 0.000004 0.000000 0.000000 -2.776168 -1.853018 -3.885850 -29.415572 5.322908 6.187959 -192.602141 -159.932376 -189.289513 -4.716789 -14.147245 33.880645 -0.523048 -5.344052 -4.008790 -0.252292 0.479206 -19.401504 -0.000007 -0.000006 0.000007 -0.000000 0.000000 -0.000000 8.103206 1.774704 -3.369957 -1.137935 0.386865 0.997017 -0.000003 -0.000005 -0.000011 0.000000 0.000000 -0.000002 -5.457213 -13.395754 -1.371579 -31.205321 -4.345319 -3.918773 -183.973044 148.689817 181.447882 1.156355 3.250024 -38.014876 -2.774818 -7.010877 0.825543 5.567896 -18.751699 -2.857153 -0.000001 0.000003 -0.000001 0.000000 -0.000000 -0.000004 -1.191995 -0.188012 8.298874 -0.146016 -0.847328 20.173701 -0.000008 0.000014 -0.000013 0.000002 -0.000002 0.000003 -47.030108 -0.628738 28.728506 134.145189 -13.246285 -3.865549 -26.293508 0.833598 -4.302077 -2.293424 -0.087583 -0.300962 -0.000003 0.000001 0.000000 -85.511783 -4.320615 -23.652786 131.234995 8.460006 -1.851463 34.581115 4.295396 17.255105 2.480183 -0.002622 0.000115 0.000002 0.000005 -0.000003 
-155.035553 174.866699 151.041580 51.999108 -112.869586 64.897480 14.770209 -0.903506 -4.415265 29.514531 -1.721867 -6.705809 29.514518 -1.721847 -6.705831 1.865638 4.451091 -6.518788 2.113188 7.328633 1.554795 0.000002 -0.000001 -0.000000 -4.113437 1.671407 0.666205 -27.705798 8.108634 5.973641 -191.421898 -161.988332 -189.829125 -3.601905 -16.375636 34.301743 -0.902028 -6.981005 -3.808499 0.033167 0.804299 -16.419122 -0.000008 -0.000002 0.000008 -0.000000 -0.000001 -0.000000 9.163325 4.814179 -5.499074 -0.335500 0.032598 0.783570 -0.000000 -0.000009 -0.000008 -0.000000 -0.000001 0.000001 -5.378315 -12.971005 -1.368808 -23.271040 -14.249978 -1.670380 -184.396311 152.166929 183.351019 1.714755 5.883243 -37.145499 -8.897193 -4.903873 -0.383920 7.903691 -19.193154 -2.857224 -0.000002 0.000003 -0.000009 -0.000001 -0.000001 -0.000001 -1.086379 -1.215859 4.525071 0.140225 -1.116311 16.942255 -0.000008 0.000015 -0.000008 0.000003 0.000002 0.000002 -73.949802 -0.474587 22.612289 122.668025 -6.974334 -1.670988 1.202190 0.896407 -16.554712 -1.476128 -0.000029 -0.000001 0.000000 -0.000000 -0.000001 -71.271952 -4.500559 -24.696926 126.826463 15.233046 0.938699 30.255283 4.104565 20.903522 2.803016 -0.003366 0.000198 0.000000 -0.000001 -0.000002 
-155.035553 174.866699 151.041580 51.999108 -112.869586 64.897480 14.770209 -0.903506 -4.415265 29.514531 -1.721867 -6.705809 29.514518 -1.721847 -6.705831 1.865638 4.451091 -6.518788 2.113188 7.328633 1.554795 0.000002 -0.000001 -0.000000 -4.113437 1.671407 0.666205 -27.705798 8.108634 5.973641 -191.421898 -161.988332 -189.829125 -3.601905 -16.375636 34.301743 -0.902028 -6.981005 -3.808499 0.033167 0.804299 -16.419122 -0.000008 -0.000002 0.000008 -0.000000 -0.000001 -0.000000 9.163325 4.814179 -5.499074 -0.335500 0.032598 0.783570 -0.000000 -0.000009 -0.000008 -0.000000 -0.000001 0.000001 -5.378315 -12.971005 -1.368808 -23.271040 -14.249978 -1.670380 -184.396311 152.166929 183.351019 1.714755 5.883243 -37.145499 -8.897193 -4.903873 -0.383920 7.903691 -19.193154 -2.857224 -0.000002 0.000003 -0.000009 -0.000001 -0.000001 -0.000001 -1.086379 -1.215859 4.525071 0.140225 -1.116311 16.942255 -0.000008 0.000015 -0.000008 0.000003 0.000002 0.000002 -73.949802 -0.474587 22.612289 122.668025 -6.974334 -1.670988 1.202190 0.896407 -16.554712 -1.476128 -0.000029 -0.000001 0.000000 -0.000000 -0.000001 -71.271952 -4.500559 -24.696926 126.826463 15.233046 0.938699 30.255283 4.104565 20.903522 2.803016 -0.003366 0.000198 0.000000 -0.000001 -0.000002 
-155.035553 174.866699 151.041580 51.999108 -112.869586 64.897480 14.770209 -0.903506 -4.415265 29.514531 -1.721867 -6.705809 29.514518 -1.721847 -6.705831 1.865638 4.451091 -6.518788 2.113188 7.328633 1.554795 0.000002 -0.000001 -0.000000 -4.113437 1.671407 0.666205 -27.705798 8.108634 5.973641 -191.421898 -161.988332 -189.829125 -3.601905 -16.375636 34.301743 -0.902028 -6.981005 -3.808499 0.033167 0.804299 -16.419122 -0.000008 -0.000002 0.000008 -0.000000 -0.000001 -0.000000 9.163325 4.814179 -5.499074 -0.335500 0.032598 0.783570 -0.000000 -0.000009 -0.000008 -0.000000 -0.000001 0.000001 -5.378315 -12.971005 -1.368808 -23.271040 -14.249978 -1.670380 -184.396311 152.166929 183.351019 1.714755 5.883243 -37.145499 -8.897193 -4.903873 -0.383920 7.903691 -19.193154 -2.857224 -0.000002 0.000003 -0.000009 -0.000001 -0.000001 -0.000001 -1.086379 -1.215859 4.525071 0.140225 -1.116311 16.942255 -0.000008 0.000015 -0.000008 0.000003 0.000002 0.000002 -73.949802 -0.474587 22.612289 122.668025 -6.974334 -1.670988 1.202190 0.896407 -16.554712 -1.476128 -0.000029 -0.000001 0.000000 -0.000000 -0.000001 -71.271952 -4.500559 -24.696926 126.826463 15.233046 0.938699 30.255283 4.104565 20.903522 2.803016 -0.003366 0.000198 0.000000 -0.000001 -0.000002 
